<?xml version="1.0" encoding="iso-8859-1"?>
<!-- Generator: Adobe Illustrator 19.0.0, SVG Export Plug-In . SVG Version: 6.00 Build 0)  -->
<svg version="1.1" id="Layer_1" xmlns="http://www.w3.org/2000/svg" xmlns:xlink="http://www.w3.org/1999/xlink" x="0px" y="0px"
	 viewBox="0 0 512 512" style="enable-background:new 0 0 512 512;" xml:space="preserve">
<path style="fill:#333E48;" d="M98.205,195.611c0,8.957-7.328,16.284-16.285,16.284H24.462c-8.956,0-16.285-7.327-16.285-16.284
	v-58.261c0-8.956,7.328-16.284,16.285-16.284h57.459c8.956,0,16.285,7.328,16.285,16.284v58.261H98.205z"/>
<path style="fill:#FF5959;" d="M368.794,104.511l-60.603,4.324c-11.912,0.849-31.413,1.004-43.336,0.344l-22.494-1.245
	c-27.336-1.519-58.378-19.117-83.847-29.482c-3.155-1.381-6.39-2.612-9.712-3.654c-0.035-0.012-0.072-0.026-0.109-0.039v0.001
	c-9.053-2.827-18.68-4.352-28.664-4.352c-53.058,0-96.069,43.013-96.069,96.07c0,14.934,3.409,29.074,9.489,41.681h-0.001
	c16.851,39.444,38.206,122.976,21.737,163.715v0.001c-1.268,2.318-1.993,4.978-1.993,7.808c0,8.993,7.291,16.284,16.284,16.284
	h58.621c8.995,0,16.285-7.291,16.285-16.284c0-1.51-0.222-2.965-0.606-4.352c-2.692-20.768-11.844-109.725,26.348-125.81l0,0
	c22.941-10.223,48.935-23.203,72.238-24.499l22.494-1.245c11.923-0.66,31.423-0.505,43.336,0.344l60.603,4.324
	c11.912,0.849,21.658-8.225,21.658-20.167v-83.607C390.452,112.735,380.707,103.661,368.794,104.511z"/>
<g>
	<path style="fill:#333E48;" d="M368.794,104.511l-13.443,0.958v122.022l13.443,0.959c11.912,0.849,21.658-8.225,21.658-20.167
		v-83.607C390.452,112.735,380.707,103.661,368.794,104.511z"/>
	<circle style="fill:#333E48;" cx="120.029" cy="166.483" r="47.107"/>
	<path style="fill:#333E48;" d="M143.776,375.335c-0.213-1.644-0.467-3.719-0.734-6.149H56.187
		c-0.318,0.914-0.649,1.815-1.003,2.691v0.001c-1.268,2.318-1.993,4.978-1.993,7.808c0,8.993,7.291,16.284,16.284,16.284h58.621
		c8.995,0,16.285-7.291,16.285-16.284C144.382,378.177,144.16,376.722,143.776,375.335z"/>
</g>
<path style="fill:#1E252B;" d="M426.018,142.24c4.53-3.926,12.478-3.927,17.01,0.001c5.387,4.667,12.301,7.001,19.213,7.001
	c6.914,0,13.828-2.334,19.215-7.001c4.533-3.928,12.482-3.927,17.011-0.001c3.412,2.958,8.575,2.588,11.534-0.823
	c2.958-3.412,2.588-8.576-0.824-11.534c-10.773-9.336-27.654-9.336-38.429-0.001c-4.531,3.926-12.48,3.927-17.012,0
	c-10.774-9.336-27.653-9.336-38.427,0c-3.413,2.957-3.783,8.121-0.825,11.534C417.444,144.829,422.609,145.198,426.018,142.24z
	 M120.027,111.204c-30.48,0-55.278,24.797-55.278,55.277c0,30.48,24.797,55.279,55.278,55.279s55.28-24.798,55.28-55.279
	C175.307,136.001,150.509,111.204,120.027,111.204z M120.027,127.556c8.409,0,16.196,2.688,22.567,7.239H97.46
	C103.831,130.245,111.619,127.556,120.027,127.556z M120.027,205.407c-8.408,0-16.195-2.688-22.566-7.239h45.131
	C136.223,202.717,128.436,205.407,120.027,205.407z M155.801,181.815H84.255c-0.981-2.282-1.749-4.677-2.282-7.157h76.109
	C157.55,177.139,156.783,179.533,155.801,181.815z M81.973,158.305c0.533-2.481,1.299-4.875,2.282-7.157h71.547
	c0.982,2.282,1.749,4.676,2.282,7.157H81.973z M370.336,96.279c-0.703,0-1.418,0.025-2.123,0.076l-60.603,4.324
	c-6.434,0.459-15.761,0.733-24.949,0.733c-6.567,0-12.731-0.141-17.355-0.397l-22.492-1.245
	c-19.072-1.06-41.462-11.193-61.217-20.132c-6.947-3.144-13.511-6.114-19.905-8.719c-3.457-1.51-6.935-2.818-10.341-3.89
	c-0.081-0.027-0.166-0.055-0.223-0.073c-10.038-3.134-20.502-4.724-31.102-4.724c-37.898,0-71.133,20.331-89.383,50.657h-6.182
	C10.973,112.89,0,123.863,0,137.351v58.261c0,13.488,10.973,24.46,24.462,24.46h4.985c16.94,44.067,31.577,114.728,18.307,148.363
	c-1.794,3.464-2.74,7.341-2.74,11.252c0,13.488,10.973,24.46,24.46,24.46h19.294v4.033c0,13.915-11.32,25.236-25.235,25.236H23.958
	c-4.516,0-8.176,3.661-8.176,8.176c0,4.516,3.661,8.176,8.176,8.176h39.576c22.932,0,41.587-18.656,41.587-41.588v-4.033h22.976
	c13.488,0,24.462-10.973,24.462-24.46c0-1.967-0.249-3.953-0.74-5.916c-1-7.829-2.752-24.151-2.782-42.444
	c0-0.013,0.002-0.025,0.002-0.038c0-0.014-0.002-0.027-0.002-0.041c-0.009-6.491,0.197-13.226,0.733-19.92
	c1.677-20.941,7.12-47.355,23.529-54.265c0.051-0.022,0.104-0.044,0.155-0.066c2.679-1.194,5.399-2.425,8.151-3.671
	c19.753-8.941,42.142-19.074,61.21-20.134l22.495-1.244c4.619-0.256,10.781-0.397,17.348-0.397c9.187,0,18.515,0.274,24.953,0.734
	l60.604,4.324c0.704,0.05,1.418,0.075,2.12,0.075c0.001,0,0.001,0,0.002,0c7.618,0,14.735-2.92,20.039-8.221
	c5.323-5.32,8.254-12.487,8.254-20.178v-83.607C398.628,108.753,386.201,96.279,370.336,96.279z M16.353,195.611V177.45
	c0.928,8.942,2.988,17.646,6.18,26.028C18.991,202.609,16.353,199.416,16.353,195.611z M16.353,155.559v-18.208
	c0-3.82,2.659-7.023,6.222-7.878C19.431,137.722,17.303,146.467,16.353,155.559z M128.097,387.794H69.475
	c-4.471,0-8.108-3.637-8.108-8.108c0-0.801,0.126-1.576,0.351-2.324h74.147c0.013,0.05,0.017,0.102,0.031,0.154
	c0.205,0.742,0.31,1.473,0.31,2.171C136.206,384.158,132.568,387.794,128.097,387.794z M347.175,218.711l-38.403-2.74
	c-6.903-0.493-16.423-0.775-26.116-0.775c-6.959,0-13.271,0.146-18.252,0.422l-22.497,1.245
	c-22.121,1.229-45.988,12.032-67.047,21.563c-2.698,1.221-5.365,2.429-7.992,3.599c-15.568,6.598-25.898,22.885-30.83,48.52h-4.768
	c-4.516,0-8.176,3.661-8.176,8.176s3.661,8.176,8.176,8.176h2.475c-0.098,1.031-0.191,2.07-0.275,3.124
	c-0.35,4.375-0.568,8.762-0.682,13.09h-0.981c-4.516,0-8.176,3.661-8.176,8.176c0,4.516,3.661,8.176,8.176,8.176h1.001
	c0.214,7.939,0.689,15.294,1.224,21.545H66.881c9.925-48.249-12.154-123.85-25.915-156.06c-0.049-0.114-0.1-0.228-0.155-0.34
	c-5.757-11.939-8.677-24.767-8.677-38.13c0-48.465,39.429-87.894,87.893-87.894c8.892,0,17.665,1.322,26.082,3.932l0.001,0.001
	c0.082,0.028,0.164,0.056,0.246,0.082c2.908,0.911,5.895,2.035,8.877,3.341c0.065,0.028,0.132,0.057,0.197,0.084
	c6.133,2.497,12.588,5.417,19.424,8.511c21.06,9.53,44.93,20.332,67.054,21.562l22.495,1.245c4.985,0.275,11.299,0.421,18.257,0.421
	c9.696,0,19.212-0.282,26.112-0.774l38.402-2.74L347.175,218.711L347.175,218.711z M382.276,208.284c0,3.322-1.23,6.381-3.462,8.612
	c-2.215,2.214-5.225,3.433-8.477,3.433h-0.001c-0.316,0-0.637-0.011-0.958-0.034l-5.849-0.418V113.083l5.849-0.418
	c7.246-0.512,12.899,4.824,12.899,12.011V208.284z M509.179,161.687c-10.773-9.339-27.654-9.339-38.429-0.001
	c-4.531,3.926-12.482,3.926-17.011,0.001c-10.774-9.336-27.655-9.336-38.429,0c-3.412,2.958-3.782,8.122-0.824,11.534
	c2.959,3.414,8.122,3.782,11.534,0.824c4.528-3.926,12.477-3.927,17.01,0.001c5.387,4.667,12.301,7,19.213,7
	c6.914,0,13.828-2.334,19.215-7.001c4.532-3.926,12.48-3.927,17.011-0.001c3.411,2.957,8.575,2.588,11.533-0.823
	C512.959,169.809,512.591,164.645,509.179,161.687z M509.179,193.491c-10.773-9.337-27.654-9.339-38.429-0.001
	c-4.531,3.926-12.482,3.927-17.011,0.001c-10.774-9.336-27.655-9.336-38.429,0c-3.412,2.958-3.782,8.122-0.824,11.534
	c2.959,3.413,8.122,3.781,11.534,0.824c4.528-3.926,12.477-3.928,17.01,0.001c5.387,4.667,12.301,7.001,19.213,7.001
	c6.914,0,13.828-2.334,19.215-7.001c4.532-3.926,12.48-3.927,17.011-0.001c3.411,2.957,8.575,2.588,11.533-0.823
	C512.959,201.613,512.591,196.449,509.179,193.491z"/>
<g>
</g>
<g>
</g>
<g>
</g>
<g>
</g>
<g>
</g>
<g>
</g>
<g>
</g>
<g>
</g>
<g>
</g>
<g>
</g>
<g>
</g>
<g>
</g>
<g>
</g>
<g>
</g>
<g>
</g>
</svg>
